<!-- by TradingView --><svg width="18" height="18" viewBox="0 0 18 18" xmlns="http://www.w3.org/2000/svg"><path fill="#195594" d="M0 0h18v18H0z"/><path d="M4 12h1V6H3.82L2 7.14v1.08l2-1V12Zm4.27 0c1.46 0 2.23-1.15 2.23-3 0-1.84-.77-3-2.23-3S6 7.15 6 9s.8 3 2.27 3Zm0-.97C7.55 11.03 7 10.28 7 9c0-1.28.55-2.03 1.27-2.03S9.5 7.72 9.5 9V9c0 1.28-.51 2.03-1.23 2.03Zm5.5.97C15.24 12 16 10.85 16 9s-.76-3-2.23-3c-1.46 0-2.27 1.15-2.27 3s.8 3 2.27 3Zm0-.97c-.72 0-1.27-.75-1.27-2.03 0-1.28.55-2.03 1.27-2.03S15 7.72 15 9V9c0 1.28-.5 2.03-1.23 2.03Z" fill="#fff"/></svg>